<svg width="83" height="65" viewBox="0 0 83 65" fill="none" xmlns="http://www.w3.org/2000/svg">
<path d="M70.3088 5.42113C64.8656 2.85533 59.1071 1.03223 53.1855 0C52.4479 1.34344 51.5862 3.15038 50.9919 4.58789C44.6073 3.62073 38.2815 3.62073 32.0144 4.58789C31.4204 3.1507 30.5392 1.34344 29.7948 0C23.8674 1.0327 18.104 2.86045 12.6582 5.43452C1.8215 21.9324 -1.11625 38.0201 0.352464 53.8801C7.54007 59.2875 14.5056 62.5725 21.3537 64.722C23.0557 62.3641 24.5601 59.8678 25.8516 57.2588C23.3928 56.3157 21.0225 55.1535 18.7687 53.786C19.3618 53.3432 19.941 52.8816 20.5053 52.4021C34.162 58.8374 49.0008 58.8374 62.4948 52.4021C63.0616 52.8784 63.6405 53.3399 64.231 53.786C61.9737 55.1571 59.5989 56.3217 57.1352 57.2657C58.434 59.8853 59.9358 62.384 61.633 64.7286C68.4877 62.5793 75.4597 59.2944 82.6473 53.8801C84.3708 35.4946 79.7034 19.5542 70.3088 5.4208V5.42113ZM27.7123 44.1265C23.6126 44.1265 20.2504 40.2706 20.2504 35.5752C20.2504 30.8799 23.5409 27.0175 27.7123 27.0175C31.884 27.0175 35.2459 30.873 35.1742 35.5752C35.1807 40.2706 31.884 44.1265 27.7123 44.1265ZM55.2874 44.1265C51.1877 44.1265 47.8259 40.2706 47.8259 35.5752C47.8259 30.8799 51.116 27.0175 55.2874 27.0175C59.4592 27.0175 62.821 30.873 62.7493 35.5752C62.7493 40.2706 59.4592 44.1265 55.2874 44.1265Z" fill="white"/>
</svg>