<svg width="62" height="72" viewBox="0 0 62 72" fill="none" xmlns="http://www.w3.org/2000/svg">
<path d="M61.875 59.0625L58.2516 55.4391L51.625 62.0658V41.125H46.5V62.0658L39.8734 55.4391L36.25 59.0625L49.0625 71.875L61.875 59.0625Z" fill="#8B8B8B"/>
<path d="M31.125 66.75H5.5V5.25002H26V20.625C26.0041 21.983 26.5453 23.2842 27.5056 24.2445C28.4658 25.2047 29.767 25.746 31.125 25.75H46.5V33.4375H51.625V20.625C51.634 20.2882 51.57 19.9535 51.4373 19.6439C51.3046 19.3342 51.1064 19.057 50.8563 18.8313L32.9188 0.893767C32.6932 0.643525 32.4159 0.445202 32.1063 0.312482C31.7966 0.179761 31.4618 0.115802 31.125 0.125017H5.5C4.14201 0.129073 2.8408 0.670329 1.88056 1.63058C0.920312 2.59082 0.379056 3.89203 0.375 5.25002V66.75C0.379056 68.108 0.920312 69.4092 1.88056 70.3695C2.8408 71.3297 4.14201 71.871 5.5 71.875H31.125V66.75ZM31.125 6.27502L45.475 20.625H31.125V6.27502Z" fill="#8B8B8B"/>
</svg>
