<svg width="18" height="13" viewBox="0 0 18 13" fill="none" xmlns="http://www.w3.org/2000/svg">
<path d="M17.6023 2.02764C17.499 1.63573 17.2976 1.27844 17.0182 0.991343C16.7387 0.704248 16.3908 0.497366 16.0093 0.3913C14.6125 0 8.99069 0 8.99069 0C8.99069 0 3.36864 0.0118444 1.97181 0.403144C1.59026 0.509217 1.24242 0.716109 0.962931 1.00322C0.68344 1.29033 0.482049 1.64763 0.378815 2.03956C-0.043693 4.58886 -0.207591 8.4734 0.390416 10.9207C0.493661 11.3126 0.695057 11.6699 0.974548 11.957C1.25404 12.2441 1.60187 12.451 1.98342 12.5571C3.38024 12.9484 9.00215 12.9484 9.00215 12.9484C9.00215 12.9484 14.624 12.9484 16.0207 12.5571C16.4023 12.451 16.7502 12.2441 17.0297 11.957C17.3092 11.6699 17.5106 11.3126 17.6138 10.9207C18.0595 8.36781 18.1968 4.48572 17.6023 2.02771V2.02764Z" fill="#EC4D4D"/>
<path d="M7.20148 9.24879L11.8652 6.47416L7.20148 3.69952V9.24879Z" fill="white"/>
</svg>
